<?xml version="1.0" encoding="utf-8"?>
<!-- Generator: Adobe Illustrator 16.0.0, SVG Export Plug-In . SVG Version: 6.00 Build 0)  -->
<!DOCTYPE svg PUBLIC "-//W3C//DTD SVG 1.1//EN" "http://www.w3.org/Graphics/SVG/1.1/DTD/svg11.dtd">
<svg version="1.1" id="Layer_1" xmlns="http://www.w3.org/2000/svg" xmlns:xlink="http://www.w3.org/1999/xlink" x="0px" y="0px"
	 width="51.711px" height="20.9px" viewBox="0 0 51.711 20.9" enable-background="new 0 0 51.711 20.9" xml:space="preserve">
<rect fill-rule="evenodd" clip-rule="evenodd" fill="#010101" width="5.35" height="20.631"/>
<path fill-rule="evenodd" clip-rule="evenodd" fill="#010101" d="M16.77,0l-1.24,9.641L14.77,4.4c-0.23-1.68-0.44-3.15-0.65-4.4
	H7.18v20.631h4.69l0.02-13.62l1.97,13.62h3.34l1.88-13.92l0.01,13.92h4.679V0H16.77z"/>
<path fill-rule="evenodd" clip-rule="evenodd" fill="#010101" d="M32.09,20.631c1.28,0,2.24-0.07,2.881-0.21
	c0.629-0.14,1.17-0.38,1.6-0.74c0.43-0.351,0.74-0.84,0.91-1.46c0.18-0.62,0.279-1.859,0.279-3.71v-7.24
	c0-1.95-0.08-3.26-0.189-3.93c-0.12-0.66-0.42-1.271-0.9-1.81c-0.47-0.541-1.17-0.931-2.08-1.17C33.68,0.121,32.18,0,29.59,0H25.6
	v20.631H32.09z M32.141,3.721c0.209,0.12,0.35,0.311,0.41,0.58c0.06,0.26,0.09,0.859,0.09,1.79v7.989
	c0,1.381-0.09,2.221-0.271,2.531c-0.18,0.31-0.649,0.459-1.42,0.459V3.531C31.53,3.531,31.93,3.591,32.141,3.721z"/>
<path fill-rule="evenodd" clip-rule="evenodd" fill="#010101" d="M39.58,0v20.631h4.82l0.34-1.311c0.43,0.53,0.91,0.92,1.439,1.19
	c0.531,0.26,1.311,0.39,1.92,0.39c0.841,0,1.58-0.22,2.19-0.67c0.62-0.439,1.011-0.97,1.171-1.57c0.17-0.609,0.25-1.529,0.25-2.76
	v-5.789c0-1.25-0.021-2.061-0.08-2.44C51.58,7.291,51.41,6.9,51.141,6.5c-0.28-0.399-0.67-0.709-1.19-0.93
	c-0.53-0.22-1.14-0.33-1.851-0.33c-0.609,0-1.399,0.121-1.93,0.371c-0.52,0.239-1,0.609-1.43,1.1V0H39.58z M46.551,15.631
	c0,0.99-0.051,1.63-0.15,1.89c-0.1,0.261-0.53,0.39-0.86,0.39c-0.319,0-0.53-0.119-0.64-0.379c-0.1-0.25-0.16-0.83-0.16-1.74v-5.45
	c0-0.94,0.05-1.521,0.141-1.761c0.1-0.229,0.31-0.35,0.619-0.35c0.33,0,0.77,0.141,0.881,0.4c0.109,0.27,0.17,0.84,0.17,1.71V15.631
	z"/>
</svg>
